# Aspose.3D Wavefront OBJ Exporter
# Copyright 2004-2022 Aspose Pty Ltd.
# File created: 2/21/2022 9:30:15 AM


#
# object obj_21827
#

v 133.73487854003906256 -17 1745.3271484375
v 201.251495361328125 -17 1749.8282470703125
v 201.251495361328125 -19 1749.8282470703125
v 66.21827697753906248 -19 1740.8260498046875
v 66.21827697753906248 -17 1740.8260498046875
v 201.251495361328125 -19 1749.8282470703125
v 66.21827697753906248 -19 1758.8216552734375
v 66.21827697753906248 -19 1740.8260498046875
v 66.21827697753906248 -19 1758.8216552734375
v 66.21827697753906248 -37 1758.8216552734375
v 66.21827697753906248 -37 1760.8260498046875
v 66.21827697753906248 -17 1760.8260498046875
v 66.21827697753906248 -17 1740.8260498046875
v 66.21827697753906248 -19 1740.8260498046875
v 66.21827697753906248 -19 1758.8216552734375
v 201.251495361328125 -19 1749.8282470703125
v 201.251495361328125 -37 1749.8282470703125
v 66.21827697753906248 -37 1758.8216552734375
v 66.21827697753906248 -17 1760.8260498046875
v 66.21827697753906248 -37 1760.8260498046875
v 201.251495361328125 -37 1751.8238525390625
v 201.251495361328125 -17 1751.8238525390625
v 133.56221008300781248 -17 1756.33642578125
v 201.251495361328125 -17 1751.8238525390625
v 201.251495361328125 -37 1751.8238525390625
v 201.722900390625 -37 1751.6690673828125
v 202.0618896484375 -37 1751.3067626953125
v 202.18498229980468752 -37 1750.8260498046875
v 202.0618896484375 -37 1750.3453369140625
v 201.722900390625 -37 1749.9830322265625
v 201.251495361328125 -37 1749.8282470703125
v 201.251495361328125 -19 1749.8282470703125
v 201.251495361328125 -17 1749.8282470703125
v 201.722900390625 -17 1749.9830322265625
v 202.0618896484375 -17 1750.3453369140625
v 202.18498229980468752 -17 1750.8260498046875
v 202.0618896484375 -17 1751.3067626953125
v 201.722900390625 -17 1751.6690673828125
v 133.73487854003906256 -17 1745.3271484375
v 134.01568603515625 -17 1748.9970703125
v 133.95796203613281248 -17 1752.67724609375
v 133.56221008300781248 -17 1756.33642578125
v 201.251495361328125 -17 1751.8238525390625
v 201.722900390625 -17 1751.6690673828125
v 202.0618896484375 -17 1751.3067626953125
v 202.18498229980468752 -17 1750.8260498046875
v 202.0618896484375 -17 1750.3453369140625
v 201.722900390625 -17 1749.9830322265625
v 201.251495361328125 -17 1749.8282470703125
v 201.251495361328125 -37 1749.8282470703125
v 201.722900390625 -37 1749.9830322265625
v 202.0618896484375 -37 1750.3453369140625
v 202.18498229980468752 -37 1750.8260498046875
v 202.0618896484375 -37 1751.3067626953125
v 201.722900390625 -37 1751.6690673828125
v 201.251495361328125 -37 1751.8238525390625
v 66.21827697753906248 -37 1760.8260498046875
v 66.21827697753906248 -37 1758.8216552734375
v 132.11090087890625 -7 1737.9566650390625
v 134.005645751953125 -7 1751.71875
v 131.0792236328125 -7 1765.298828125
v 123.68461608886718752 -7 1777.05908203125
v 112.71371459960937504 -7 1785.5809326171875
v 99.48977661132812496 -7 1789.836669921875
v 85.60780334472656248 -7 1789.3128662109375
v 72.74215698242187504 -7 1784.07275390625
v 62.44464111328125 -7 1774.748291015625
v 55.9572715759277344 -7 1762.46435546875
v 54.06253433227539062 -7 1748.7022705078125
v 56.98895263671875008 -7 1735.1221923828125
v 64.38356018066406248 -7 1723.3619384765625
v 75.354461669921875 -7 1714.8399658203125
v 88.57839965820312496 -7 1710.584228515625
v 102.46038055419921872 -7 1711.1080322265625
v 115.326019287109375 -7 1716.3482666015625
v 125.62353515625 -7 1725.672607421875
v 133.73487854003906256 -17 1745.3271484375
v 129.9449462890625 -17 1732.592041015625
v 122.19252014160156248 -17 1721.8009033203125
v 111.33303070068359376 -17 1714.1446533203125
v 98.56472778320312496 -17 1710.4678955078125
v 85.29651641845703124 -17 1711.176513671875
v 72.9924240112304688 -17 1716.192138671875
v 63.01011276245117187 -17 1724.96142578125
v 56.45106124877929688 -17 1736.516845703125
v 54.03900909423828125 -17 1749.5831298828125
v 56.04010391235351562 -17 1762.71875
v 62.23353958129882812 -17 1774.47412109375
v 71.9359207153320312 -17 1783.55224609375
v 84.07666778564453125 -17 1788.9512939453125
v 97.31613922119140624 -17 1790.0755615234375
v 110.19345855712890624 -17 1786.8011474609375
v 121.2877197265625 -17 1779.4891357421875
v 129.37474060058593752 -17 1768.946533203125
v 133.56221008300781248 -17 1756.33642578125
v 133.95796203613281248 -17 1752.67724609375
v 134.01568603515625 -17 1748.9970703125
v 132.11090087890625 -7 1737.9566650390625
v 125.62353515625 -7 1725.672607421875
v 115.326019287109375 -7 1716.3482666015625
v 102.46038055419921872 -7 1711.1080322265625
v 88.57839965820312496 -7 1710.584228515625
v 75.354461669921875 -7 1714.8399658203125
v 64.38356018066406248 -7 1723.3619384765625
v 56.98895263671875008 -7 1735.1221923828125
v 54.06253433227539062 -7 1748.7022705078125
v 55.9572715759277344 -7 1762.46435546875
v 62.44464111328125 -7 1774.748291015625
v 72.74215698242187504 -7 1784.07275390625
v 85.60780334472656248 -7 1789.3128662109375
v 99.48977661132812496 -7 1789.836669921875
v 112.71371459960937504 -7 1785.5809326171875
v 123.68461608886718752 -7 1777.05908203125
v 131.0792236328125 -7 1765.298828125
v 134.005645751953125 -7 1751.71875
v 66.21827697753906248 -17 1760.8260498046875
v 133.56221008300781248 -17 1756.33642578125
v 129.37474060058593752 -17 1768.946533203125
v 121.2877197265625 -17 1779.4891357421875
v 110.19345855712890624 -17 1786.8011474609375
v 97.31613922119140624 -17 1790.0755615234375
v 84.07666778564453125 -17 1788.9512939453125
v 71.9359207153320312 -17 1783.55224609375
v 62.23353958129882812 -17 1774.47412109375
v 56.04010391235351562 -17 1762.71875
v 54.03900909423828125 -17 1749.5831298828125
v 56.45106124877929688 -17 1736.516845703125
v 63.01011276245117187 -17 1724.96142578125
v 72.9924240112304688 -17 1716.192138671875
v 85.29651641845703124 -17 1711.176513671875
v 98.56472778320312496 -17 1710.4678955078125
v 111.33303070068359376 -17 1714.1446533203125
v 122.19252014160156248 -17 1721.8009033203125
v 129.9449462890625 -17 1732.592041015625
v 133.73487854003906256 -17 1745.3271484375
v 66.21827697753906248 -17 1740.8260498046875
# 136 vertices

vn 0.06651900708675385 0 -0.9977851510047912
vn 0.06651900708675385 0 -0.9977851510047912
vn 0.06651900708675385 0 -0.9977851510047912
vn 0.06651900708675385 0 -0.9977851510047912
vn 0.06651900708675385 0 -0.9977851510047912
vn 0 -1 0
vn 0 -1 0
vn 0 -1 0
vn -1 0 2.5281589163269225E-32
vn -1 0 2.5281589163269225E-32
vn -1 0 2.5281589163269225E-32
vn -1 0 2.5281589163269225E-32
vn -1 0 2.5281589163269225E-32
vn -1 0 2.5281589163269225E-32
vn -0.06645376235246658 1.232595164407831E-32 -0.99778950214385984
vn -0.06645376235246658 1.232595164407831E-32 -0.99778950214385984
vn -0.06645376235246658 1.232595164407831E-32 -0.99778950214385984
vn -0.06645376235246658 1.232595164407831E-32 -0.99778950214385984
vn 0.06651900708675385 0 0.9977851510047912
vn 0.06651900708675385 0 0.9977851510047912
vn 0.06651900708675385 0 0.9977851510047912
vn 0.06651900708675385 0 0.9977851510047912
vn 0.06651900708675385 0 0.9977851510047912
vn 0.06651900708675385 1.232595164407831E-32 0.9977851510047912
vn 0.06651900708675385 1.232595164407831E-32 0.9977851510047912
vn 0.53792822360992432 0 0.8429906368255616
vn 0.87690597772598272 -2.465190328815662E-32 0.48066192865371704
vn 1 -4.930380657631324E-32 2.831068712794149E-15
vn 0.87690597772598272 -4.930380657631324E-32 -0.48066192865371704
vn 0.53792822360992432 0 -0.8429906368255616
vn 0.06651900708675385 -1.232595164407831E-32 -0.9977851510047912
vn 0.06651900708675385 0 -0.9977851510047912
vn 0.06651900708675385 1.232595164407831E-32 -0.9977851510047912
vn 0.53792822360992432 0 -0.8429906368255616
vn 0.87690597772598272 -4.930380657631324E-32 -0.48066192865371704
vn 1 -4.930380657631324E-32 1.1102230246251565E-15
vn 0.87690597772598272 0 0.48066192865371704
vn 0.53792822360992432 -1.232595164407831E-32 0.8429906368255616
vn 0 1 0
vn 0 1 0
vn 0 1 0
vn 0 1 0
vn 0 1 0
vn 0 1 0
vn 0 1 0
vn 0 1 0
vn 0 1 0
vn 0 1 0
vn 0 1 0
vn 0 -1 0
vn 0 -1 0
vn 0 -1 0
vn 0 -1 0
vn 0 -1 0
vn 0 -1 0
vn 0 -1 0
vn 0 -1 0
vn 0 -1 0
vn 0.95192039012908928 -2.944395315450111E-16 -0.30634549260139464
vn 0.9992889165878296 -2.7668265047612716E-16 0.03770533949136734
vn 0.92612844705581664 -2.2555375654638747E-16 0.37720835208892824
vn 0.741263210773468 -1.4721976577250555E-16 0.67121446132659912
vn 0.4669906795024872 -5.1128887312294795E-17 0.88426226377487184
vn 0.13639219105243682 5.1128887312294795E-17 0.9906549453735352
vn -0.21065720915794372 1.4721976577250555E-16 0.97755998373031616
vn -0.53229820728302 2.2555375654638747E-16 0.84655690193176272
vn -0.78973621129989632 2.7668265047612716E-16 0.61344653367996216
vn -0.95192039012908928 2.944395315450111E-16 0.30634549260139464
vn -0.9992889165878296 2.7668265047612716E-16 -0.03770533949136734
vn -0.92612844705581664 2.2555375654638747E-16 -0.37720835208892824
vn -0.741263210773468 1.4721976577250555E-16 -0.67121446132659912
vn -0.4669906795024872 5.1128887312294795E-17 -0.88426226377487184
vn -0.13639219105243682 -5.1128887312294795E-17 -0.9906549453735352
vn 0.21065720915794372 -1.4721976577250555E-16 -0.97755998373031616
vn 0.53229820728302 -2.2555375654638747E-16 -0.84655690193176272
vn 0.78973621129989632 -2.7668265047612716E-16 -0.61344653367996216
vn 0.99251991510391232 -2.891983563651975E-16 -0.12208303064107894
vn 0.89777135848999024 -2.9135979915813326E-16 -0.4404617249965668
vn 0.70396071672439576 -2.6137192114957485E-16 -0.71023887395858768
vn 0.43247345089912416 -2.0254368301775077E-16 -0.90164667367935184
vn 0.11326605826616288 -1.2136630851905457E-16 -0.99356466531753536
vn -0.21843937039375304 -2.6797096624445344E-17 -0.97585052251815792
vn -0.5260416865348816 7.072896501396329E-17 -0.85045880079269408
vn -0.77559936046600336 1.6045063216685453E-16 -0.63122546672821048
vn -0.93957567214965824 2.324678217970283E-16 -0.3423413038253784
vn -0.99987703561782832 2.788339553434755E-16 -0.01568242348730564
vn -0.94984966516494752 2.9443294056989027E-16 0.3127068877220154
vn -0.79501372575759888 2.7754350064833355E-16 0.60659140348434448
vn -0.55245417356491088 2.30029293351222E-16 0.83354324102401728
vn -0.24893556535243988 1.5713312174981466E-16 0.96852004528045648
vn 0.08205117285251617 6.689852982524663E-17 0.99662810564041136
vn 0.40398418903350832 -3.071780203340991E-17 0.9147659540176392
vn 0.68134069442749024 -1.2494466537917937E-16 0.7319664359092712
vn 0.88351649045944208 -2.053848432810785E-16 0.46840009093284608
vn 0.98820304870605472 -2.6316238998139283E-16 0.15314938127994538
vn 0.99809676408767696 -2.741870796552792E-16 0.06166771426796913
vn 0.99953973293304448 -2.828903167185375E-16 -0.03033608198165893
vn 2.8028299048821117E-16 1 -9.020022091575522E-17
vn 2.8028299048821117E-16 1 -9.020022091575522E-17
vn 2.8028299048821117E-16 1 -9.020022091575522E-17
vn 2.8028299048821117E-16 1 -9.020022091575522E-17
vn 2.8028299048821117E-16 1 -9.020022091575522E-17
vn 2.8028299048821117E-16 1 -9.020022091575522E-17
vn 2.8028299048821117E-16 1 -9.020022091575522E-17
vn 2.8028299048821117E-16 1 -9.020022091575522E-17
vn 2.8028299048821117E-16 1 -9.020022091575522E-17
vn 2.8028299048821117E-16 1 -9.020022091575522E-17
vn 2.8028299048821117E-16 1 -9.020022091575522E-17
vn 2.8028299048821117E-16 1 -9.020022091575522E-17
vn 2.8028299048821117E-16 1 -9.020022091575522E-17
vn 2.8028299048821117E-16 1 -9.020022091575522E-17
vn 2.8028299048821117E-16 1 -9.020022091575522E-17
vn 2.8028299048821117E-16 1 -9.020022091575522E-17
vn 2.8028299048821117E-16 1 -9.020022091575522E-17
vn 2.8028299048821117E-16 1 -9.020022091575522E-17
vn -2.8028299048821117E-16 -1 9.020022091575522E-17
vn -2.8028299048821117E-16 -1 9.020022091575522E-17
vn -2.8028299048821117E-16 -1 9.020022091575522E-17
vn -2.8028299048821117E-16 -1 9.020022091575522E-17
vn -2.8028299048821117E-16 -1 9.020022091575522E-17
vn -2.8028299048821117E-16 -1 9.020022091575522E-17
vn -2.8028299048821117E-16 -1 9.020022091575522E-17
vn -2.8028299048821117E-16 -1 9.020022091575522E-17
vn -2.8028299048821117E-16 -1 9.020022091575522E-17
vn -2.8028299048821117E-16 -1 9.020022091575522E-17
vn -2.8028299048821117E-16 -1 9.020022091575522E-17
vn -2.8028299048821117E-16 -1 9.020022091575522E-17
vn -2.8028299048821117E-16 -1 9.020022091575522E-17
vn -2.8028299048821117E-16 -1 9.020022091575522E-17
vn -2.8028299048821117E-16 -1 9.020022091575522E-17
vn -2.8028299048821117E-16 -1 9.020022091575522E-17
vn -2.8028299048821117E-16 -1 9.020022091575522E-17
vn -2.8028299048821117E-16 -1 9.020022091575522E-17
vn -2.8028299048821117E-16 -1 9.020022091575522E-17
vn -2.8028299048821117E-16 -1 9.020022091575522E-17
vn -2.8028299048821117E-16 -1 9.020022091575522E-17
# 136 vertex normals

g obj_21827
s 1
f 2//2 3//3 1//1
f 1//1 3//3 4//4
f 1//1 4//4 5//5
f 7//7 8//8 6//6
f 11//11 9//9 10//10
f 11//11 12//12 9//9
f 9//9 12//12 13//13
f 9//9 13//13 14//14
f 15//15 16//16 18//18
f 18//18 16//16 17//17
f 19//19 20//20 23//23
f 23//23 20//20 21//21
f 23//23 21//21 22//22
f 25//25 38//38 24//24
f 25//25 26//26 38//38
f 38//38 26//26 27//27
f 38//38 27//27 37//37
f 37//37 27//27 28//28
f 37//37 28//28 36//36
f 36//36 28//28 29//29
f 36//36 29//29 35//35
f 35//35 29//29 30//30
f 35//35 30//30 34//34
f 33//33 34//34 32//32
f 32//32 34//34 30//30
f 32//32 30//30 31//31
f 43//43 44//44 45//45
f 46//46 47//47 49//49
f 49//49 47//47 48//48
f 40//40 41//41 43//43
f 43//43 41//41 42//42
f 45//45 46//46 43//43
f 43//43 46//46 49//49
f 43//43 49//49 40//40
f 40//40 49//49 39//39
f 53//53 54//54 56//56
f 56//56 54//54 55//55
f 51//51 52//52 50//50
f 50//50 52//52 53//53
f 50//50 53//53 58//58
f 58//58 53//53 56//56
f 58//58 56//56 57//57
f 68//68 88//88 67//67
f 67//67 88//88 89//89
f 67//67 89//89 66//66
f 66//66 89//89 90//90
f 66//66 90//90 65//65
f 65//65 90//90 91//91
f 65//65 91//91 64//64
f 64//64 91//91 92//92
f 64//64 92//92 63//63
f 63//63 92//92 93//93
f 63//63 93//93 62//62
f 62//62 93//93 94//94
f 62//62 94//94 61//61
f 61//61 94//94 95//95
f 61//61 95//95 60//60
f 60//60 95//95 96//96
f 96//96 97//97 60//60
f 60//60 97//97 77//77
f 60//60 77//77 59//59
f 59//59 77//77 78//78
f 59//59 78//78 76//76
f 76//76 78//78 79//79
f 76//76 79//79 75//75
f 75//75 79//79 80//80
f 75//75 80//80 74//74
f 74//74 80//80 81//81
f 74//74 81//81 73//73
f 73//73 81//81 82//82
f 73//73 82//82 72//72
f 72//72 82//82 83//83
f 72//72 83//83 71//71
f 71//71 83//83 84//84
f 71//71 84//84 70//70
f 70//70 84//84 85//85
f 70//70 85//85 69//69
f 69//69 85//85 86//86
f 69//69 86//86 68//68
f 68//68 86//86 87//87
f 68//68 87//87 88//88
f 111//111 112//112 110//110
f 110//110 112//112 113//113
f 110//110 113//113 109//109
f 109//109 113//113 114//114
f 109//109 114//114 108//108
f 108//108 114//114 115//115
f 108//108 115//115 107//107
f 107//107 115//115 98//98
f 107//107 98//98 106//106
f 106//106 98//98 99//99
f 106//106 99//99 105//105
f 105//105 99//99 100//100
f 105//105 100//100 104//104
f 104//104 100//100 101//101
f 104//104 101//101 103//103
f 103//103 101//101 102//102
f 118//118 116//116 117//117
f 129//129 136//136 128//128
f 118//118 119//119 116//116
f 116//116 119//119 120//120
f 116//116 120//120 121//121
f 121//121 122//122 116//116
f 116//116 122//122 123//123
f 116//116 123//123 124//124
f 124//124 125//125 116//116
f 116//116 125//125 126//126
f 116//116 126//126 136//136
f 136//136 126//126 127//127
f 136//136 127//127 128//128
f 129//129 130//130 136//136
f 136//136 130//130 131//131
f 136//136 131//131 132//132
f 132//132 133//133 136//136
f 136//136 133//133 134//134
f 136//136 134//134 135//135
#116 polygons

