# Aspose.3D Wavefront OBJ Exporter
# Copyright 2004-2022 Aspose Pty Ltd.
# File created: 2/21/2022 9:30:15 AM


#
# object obj_31304626
#

v 366 -10 1420.1201171875
v 368.17633056640625 -10 1411.2904052734375
v 374.206756591796875 -10 1404.4835205078125
v 382.70980834960937504 -10 1401.2586669921875
v 391.73748779296875008 -10 1402.3548583984375
v 399.221710205078125 -10 1407.5208740234375
v 403.44790649414062496 -10 1415.5731201171875
v 403.44790649414062496 -10 1424.6671142578125
v 399.221710205078125 -10 1432.719482421875
v 391.73748779296875008 -10 1437.885498046875
v 382.70980834960937504 -10 1438.9815673828125
v 374.206756591796875 -10 1435.7568359375
v 368.17633056640625 -10 1428.949951171875
v 385 -29 1420.1201171875
v 385 -14.22789764404296876 1401.5965576171875
v 385 -21.8463058471679688 1405.265380859375
v 385 -27.118408203125 1411.8763427734375
v 366.61141967773437504 -14.22789764404296876 1417.8873291015625
v 370.253509521484375 -21.8463058471679688 1418.32958984375
v 376.81631469726562496 -27.118408203125 1419.12646484375
v 377.29193115234375 -27.118408203125 1423.04345703125
v 371.11053466796875 -21.8463058471679688 1425.3876953125
v 367.68011474609375 -14.22789764404296876 1426.688720703125
v 369.75534057617187504 -14.22789764404296876 1409.5975341796875
v 372.77474975585937504 -21.8463058471679688 1411.681640625
v 378.215484619140625 -27.118408203125 1415.4371337890625
v 376.39163208007812496 -14.22789764404296876 1403.71826171875
v 378.09661865234375 -21.8463058471679688 1406.9669189453125
v 381.168914794921875 -27.118408203125 1412.8206787109375
v 393.60836791992187504 -14.22789764404296876 1403.71826171875
v 391.90338134765624992 -21.8463058471679688 1406.9669189453125
v 388.83108520507812496 -27.118408203125 1412.8206787109375
v 400.244659423828125 -14.22789764404296876 1409.5975341796875
v 397.225250244140625 -21.8463058471679688 1411.681640625
v 391.78451538085937504 -27.118408203125 1415.4371337890625
v 403.38858032226562496 -14.22789764404296876 1417.8873291015625
v 399.74649047851562496 -21.8463058471679688 1418.32958984375
v 393.183685302734375 -27.118408203125 1419.12646484375
v 402.31988525390625 -14.22789764404296876 1426.688720703125
v 398.88946533203124992 -21.8463058471679688 1425.3876953125
v 392.70806884765625 -27.118408203125 1423.04345703125
v 397.283447265625 -14.22789764404296876 1433.9853515625
v 394.85055541992187504 -21.8463058471679688 1431.2391357421875
v 390.46664428710937504 -27.118408203125 1426.290771484375
v 389.4329833984375 -14.22789764404296876 1438.10546875
v 388.55499267578125 -21.8463058471679688 1434.5433349609375
v 386.97286987304687504 -27.118408203125 1428.1243896484375
v 380.5670166015625 -14.22789764404296876 1438.10546875
v 381.44500732421875 -21.8463058471679688 1434.5433349609375
v 383.027130126953125 -27.118408203125 1428.1243896484375
v 372.716552734375 -14.22789764404296876 1433.9853515625
v 375.149444580078125 -21.8463058471679688 1431.2391357421875
v 379.53335571289062496 -27.118408203125 1426.290771484375
v 366 -10 1420.1201171875
v 368.17633056640625 -10 1428.949951171875
v 374.206756591796875 -10 1435.7568359375
v 382.70980834960937504 -10 1438.9815673828125
v 391.73748779296875008 -10 1437.885498046875
v 399.221710205078125 -10 1432.719482421875
v 403.44790649414062496 -10 1424.6671142578125
v 403.44790649414062496 -10 1415.5731201171875
v 399.221710205078125 -10 1407.5208740234375
v 391.73748779296875008 -10 1402.3548583984375
v 382.70980834960937504 -10 1401.2586669921875
v 374.206756591796875 -10 1404.4835205078125
v 368.17633056640625 -10 1411.2904052734375
# 66 vertices

vn -1 0 -6.123234262925839E-17
vn -0.88545602560043328 0 -0.46472316980361936
vn -0.56806474924087528 0 -0.82298386096954352
vn -0.1205366775393486 0 -0.9927088618278504
vn 0.35460489988327028 0 -0.93501621484756464
vn 0.74851077795028688 0 -0.66312265396118168
vn 0.97094184160232544 0 -0.23931565880775452
vn 0.97094184160232544 0 0.23931565880775452
vn 0.74851077795028688 0 0.66312265396118168
vn 0.35460489988327028 0 0.93501621484756464
vn -0.1205366775393486 0 0.9927088618278504
vn -0.56806474924087528 0 0.82298386096954352
vn -0.88545602560043328 0 0.46472316980361936
vn 0 -1 -6.123234262925839E-17
vn 0 -0.22252093255519868 -0.97492790222167968
vn 0 -0.62348979711532592 -0.78183150291442864
vn 6.162975822039155E-33 -0.90096884965896608 -0.43388372659683224
vn -0.96781957149505616 -0.22252093255519868 -0.11751457303762436
vn -0.77613103389739984 -0.62348979711532592 -0.09423936903476716
vn -0.4307202398777008 -0.90096884965896608 -0.05229890719056129
vn -0.40568834543228152 -0.90096884965896608 0.1538572907447815
vn -0.73102515935897824 -0.62348979711532592 0.27724125981330872
vn -0.91157341003417968 -0.22252093255519868 0.34571421146392824
vn -0.80234992504119872 -0.22252093255519868 -0.55382215976715088
vn -0.64343470335006712 -0.62348979711532592 -0.44413089752197264
vn -0.35707932710647584 -0.90096884965896608 -0.24647405743598936
vn -0.45307159423828128 -0.22252093255519868 -0.86325579881668096
vn -0.36333519220352176 -0.62348979711532592 -0.69227737188339232
vn -0.20163582265377044 -0.90096884965896608 -0.38418495655059816
vn 0.45307159423828128 -0.22252093255519868 -0.86325579881668096
vn 0.36333519220352176 -0.62348979711532592 -0.69227737188339232
vn 0.20163582265377044 -0.90096884965896608 -0.38418495655059816
vn 0.80234992504119872 -0.22252093255519868 -0.55382215976715088
vn 0.64343470335006712 -0.62348979711532592 -0.44413089752197264
vn 0.35707932710647584 -0.90096884965896608 -0.24647405743598936
vn 0.96781957149505616 -0.22252093255519868 -0.11751457303762436
vn 0.77613103389739984 -0.62348979711532592 -0.09423936903476716
vn 0.4307202398777008 -0.90096884965896608 -0.05229890719056129
vn 0.91157341003417968 -0.22252093255519868 0.34571421146392824
vn 0.73102515935897824 -0.62348979711532592 0.27724125981330872
vn 0.40568834543228152 -0.90096884965896608 0.1538572907447815
vn 0.64649677276611328 -0.22252093255519868 0.729744017124176
vn 0.51845020055770872 -0.62348979711532592 0.58520925045013424
vn 0.28771814703941344 -0.90096884965896608 0.3247666358947754
vn 0.23331552743911744 -0.22252093255519868 0.94659829139709472
vn 0.18710452318191528 -0.62348979711532592 0.75911289453506464
vn 0.10383517295122146 -0.90096884965896608 0.42127585411071776
vn -0.23331552743911744 -0.22252093255519868 0.94659829139709472
vn -0.18710452318191528 -0.62348979711532592 0.75911289453506464
vn -0.10383517295122146 -0.90096884965896608 0.42127585411071776
vn -0.64649677276611328 -0.22252093255519868 0.729744017124176
vn -0.51845020055770872 -0.62348979711532592 0.58520925045013424
vn -0.28771814703941344 -0.90096884965896608 0.3247666358947754
vn 0 1 0
vn 0 1 0
vn 0 1 0
vn 0 1 0
vn 0 1 0
vn 0 1 0
vn 0 1 0
vn 0 1 0
vn 0 1 0
vn 0 1 0
vn 0 1 0
vn 0 1 0
vn 0 1 0
# 66 vertex normals

g obj_31304626
s 1
f 48//48 45//45 11//11
f 38//38 14//14 35//35
f 35//35 14//14 32//32
f 26//26 14//14 20//20
f 20//20 14//14 21//21
f 47//47 50//50 14//14
f 14//14 50//50 53//53
f 14//14 53//53 21//21
f 38//38 41//41 14//14
f 14//14 41//41 44//44
f 14//14 44//44 47//47
f 26//26 29//29 14//14
f 14//14 29//29 17//17
f 14//14 17//17 32//32
f 11//11 45//45 10//10
f 10//10 45//45 42//42
f 10//10 42//42 9//9
f 9//9 42//42 39//39
f 9//9 39//39 8//8
f 8//8 39//39 36//36
f 8//8 36//36 7//7
f 7//7 36//36 33//33
f 7//7 33//33 6//6
f 6//6 33//33 30//30
f 6//6 30//30 5//5
f 5//5 30//30 15//15
f 5//5 15//15 4//4
f 4//4 15//15 27//27
f 4//4 27//27 3//3
f 3//3 27//27 24//24
f 3//3 24//24 2//2
f 2//2 24//24 18//18
f 2//2 18//18 1//1
f 13//13 1//1 23//23
f 23//23 1//1 18//18
f 23//23 18//18 19//19
f 19//19 18//18 25//25
f 25//25 18//18 24//24
f 25//25 24//24 28//28
f 28//28 24//24 27//27
f 28//28 27//27 16//16
f 16//16 27//27 15//15
f 16//16 15//15 31//31
f 31//31 15//15 30//30
f 31//31 30//30 34//34
f 34//34 30//30 33//33
f 34//34 33//33 37//37
f 37//37 33//33 36//36
f 37//37 36//36 40//40
f 40//40 36//36 39//39
f 40//40 39//39 43//43
f 43//43 39//39 42//42
f 43//43 42//42 46//46
f 46//46 42//42 45//45
f 46//46 45//45 49//49
f 49//49 45//45 48//48
f 49//49 48//48 52//52
f 22//22 52//52 51//51
f 51//51 52//52 48//48
f 51//51 48//48 12//12
f 12//12 48//48 11//11
f 19//19 22//22 23//23
f 23//23 22//22 51//51
f 23//23 51//51 13//13
f 13//13 51//51 12//12
f 53//53 52//52 21//21
f 21//21 52//52 22//22
f 21//21 22//22 20//20
f 20//20 22//22 19//19
f 20//20 19//19 26//26
f 26//26 19//19 25//25
f 26//26 25//25 29//29
f 29//29 25//25 28//28
f 29//29 28//28 17//17
f 17//17 28//28 16//16
f 17//17 16//16 32//32
f 32//32 16//16 31//31
f 32//32 31//31 35//35
f 35//35 31//31 34//34
f 35//35 34//34 38//38
f 38//38 34//34 37//37
f 38//38 37//37 41//41
f 41//41 37//37 40//40
f 41//41 40//40 44//44
f 44//44 40//40 43//43
f 44//44 43//43 47//47
f 47//47 43//43 46//46
f 47//47 46//46 50//50
f 50//50 46//46 49//49
f 50//50 49//49 53//53
f 53//53 49//49 52//52
f 60//60 61//61 59//59
f 59//59 61//61 62//62
f 59//59 62//62 58//58
f 58//58 62//62 63//63
f 58//58 63//63 57//57
f 57//57 63//63 64//64
f 57//57 64//64 56//56
f 56//56 64//64 65//65
f 56//56 65//65 55//55
f 55//55 65//65 66//66
f 55//55 66//66 54//54
#102 polygons

