####
#
# OBJ File Generated by Meshlab
#
####
# Object pressostato (22.01.12) - test modified and re-centered.obj
#
# Vertices: 96
# Faces: 84
#
####
vn -1.000000 0.000000 0.000000
v -0.026489 -0.042999 0.043000 0.749020 0.749020 0.749020
vn -1.000000 0.000000 0.000000
v -0.026489 -0.042999 -0.043000 0.749020 0.749020 0.749020
vn -1.000000 0.000000 0.000000
v -0.026489 0.042999 -0.043000 0.749020 0.749020 0.749020
vn -1.000000 0.000000 0.000000
v -0.026489 0.042999 0.043000 0.749020 0.749020 0.749020
vn -1.000000 0.000000 0.000000
v -0.026489 -0.044998 -0.045000 0.749020 0.749020 0.749020
vn -1.000000 0.000000 0.000000
v -0.026489 -0.044998 0.045000 0.749020 0.749020 0.749020
vn -1.000000 0.000000 0.000000
v -0.026489 0.045013 0.045000 0.749020 0.749020 0.749020
vn -1.000000 0.000000 0.000000
v -0.026489 0.045013 -0.045000 0.749020 0.749020 0.749020
vn 0.000000 1.000000 0.000000
v -0.026489 0.045013 -0.045000 0.749020 0.749020 0.749020
vn 0.000000 1.000000 0.000000
v -0.026489 0.045013 0.045000 0.749020 0.749020 0.749020
vn 0.000000 1.000000 0.000000
v 0.026520 0.045013 0.045000 0.749020 0.749020 0.749020
vn 0.000000 1.000000 0.000000
v 0.026520 0.045013 -0.045000 0.749020 0.749020 0.749020
vn 0.000000 0.000000 1.000000
v -0.026489 0.045013 0.045000 0.749020 0.749020 0.749020
vn 0.000000 0.000000 1.000000
v -0.026489 -0.044998 0.045000 0.749020 0.749020 0.749020
vn 0.000000 0.000000 1.000000
v 0.026520 -0.044998 0.045000 0.749020 0.749020 0.749020
vn 0.000000 0.000000 1.000000
v 0.026520 0.045013 0.045000 0.749020 0.749020 0.749020
vn 1.000000 0.000000 0.000000
v 0.026520 -0.028412 -0.030070 0.749020 0.749020 0.749020
vn 1.000000 0.000000 0.000000
v 0.026520 -0.028687 -0.031070 0.749020 0.749020 0.749020
vn 1.000000 0.000000 0.000000
v 0.026520 -0.029404 -0.031802 0.749020 0.749020 0.749020
vn 1.000000 0.000000 0.000000
v 0.026520 -0.030411 -0.032070 0.749020 0.749020 0.749020
vn 1.000000 0.000000 0.000000
v 0.026520 -0.031418 -0.031802 0.749020 0.749020 0.749020
vn 1.000000 0.000000 0.000000
v 0.026520 -0.032150 -0.031070 0.749020 0.749020 0.749020
vn 1.000000 0.000000 0.000000
v 0.026520 -0.032410 -0.030070 0.749020 0.749020 0.749020
vn 1.000000 0.000000 0.000000
v 0.026520 -0.032150 -0.029070 0.749020 0.749020 0.749020
vn 1.000000 0.000000 0.000000
v 0.026520 -0.031418 -0.028338 0.749020 0.749020 0.749020
vn 1.000000 0.000000 0.000000
v 0.026520 -0.030411 -0.028070 0.749020 0.749020 0.749020
vn 1.000000 0.000000 0.000000
v 0.026520 -0.029404 -0.028338 0.749020 0.749020 0.749020
vn 1.000000 0.000000 0.000000
v 0.026520 -0.028687 -0.029070 0.749020 0.749020 0.749020
vn 1.000000 0.000000 0.000000
v 0.026520 0.028427 -0.030070 0.749020 0.749020 0.749020
vn 1.000000 0.000000 0.000000
v 0.026520 0.028687 -0.029070 0.749020 0.749020 0.749020
vn 1.000000 0.000000 0.000000
v 0.026520 0.029419 -0.028338 0.749020 0.749020 0.749020
vn 1.000000 0.000000 0.000000
v 0.026520 0.030426 -0.028070 0.749020 0.749020 0.749020
vn 1.000000 0.000000 0.000000
v 0.026520 0.031418 -0.028338 0.749020 0.749020 0.749020
vn 1.000000 0.000000 0.000000
v 0.026520 0.032150 -0.029070 0.749020 0.749020 0.749020
vn 1.000000 0.000000 0.000000
v 0.026520 0.032425 -0.030070 0.749020 0.749020 0.749020
vn 1.000000 0.000000 0.000000
v 0.026520 0.032150 -0.031070 0.749020 0.749020 0.749020
vn 1.000000 0.000000 0.000000
v 0.026520 0.031418 -0.031802 0.749020 0.749020 0.749020
vn 1.000000 0.000000 0.000000
v 0.026520 0.030426 -0.032070 0.749020 0.749020 0.749020
vn 1.000000 0.000000 0.000000
v 0.026520 0.029419 -0.031802 0.749020 0.749020 0.749020
vn 1.000000 0.000000 0.000000
v 0.026520 0.028687 -0.031070 0.749020 0.749020 0.749020
vn 1.000000 0.000000 0.000000
v 0.026520 -0.044998 -0.045000 0.749020 0.749020 0.749020
vn 1.000000 0.000000 0.000000
v 0.026520 0.045013 -0.045000 0.749020 0.749020 0.749020
vn 1.000000 0.000000 0.000000
v 0.026520 0.045013 0.045000 0.749020 0.749020 0.749020
vn 1.000000 0.000000 0.000000
v 0.026520 -0.044998 0.045000 0.749020 0.749020 0.749020
vn 0.000000 -1.000000 0.000000
v -0.026489 -0.044998 0.045000 0.749020 0.749020 0.749020
vn 0.000000 -1.000000 0.000000
v -0.026489 -0.044998 -0.045000 0.749020 0.749020 0.749020
vn 0.000000 -1.000000 0.000000
v 0.026520 -0.044998 -0.045000 0.749020 0.749020 0.749020
vn 0.000000 -1.000000 0.000000
v 0.026520 -0.044998 0.045000 0.749020 0.749020 0.749020
vn 0.000000 0.000000 -1.000000
v -0.026489 -0.044998 -0.045000 0.749020 0.749020 0.749020
vn 0.000000 0.000000 -1.000000
v -0.026489 0.045013 -0.045000 0.749020 0.749020 0.749020
vn 0.000000 0.000000 -1.000000
v 0.026520 0.045013 -0.045000 0.749020 0.749020 0.749020
vn 0.000000 0.000000 -1.000000
v 0.026520 -0.044998 -0.045000 0.749020 0.749020 0.749020
vn -1.000000 0.000000 0.000000
v 0.024506 -0.032410 -0.030070 0.749020 0.749020 0.749020
vn -1.000000 0.000000 0.000000
v 0.024506 -0.032150 -0.031070 0.749020 0.749020 0.749020
vn -1.000000 0.000000 0.000000
v 0.024506 -0.031418 -0.031802 0.749020 0.749020 0.749020
vn -1.000000 0.000000 0.000000
v 0.024506 -0.030411 -0.032070 0.749020 0.749020 0.749020
vn -1.000000 0.000000 0.000000
v 0.024506 -0.029404 -0.031802 0.749020 0.749020 0.749020
vn -1.000000 0.000000 0.000000
v 0.024506 -0.028687 -0.031070 0.749020 0.749020 0.749020
vn -1.000000 0.000000 0.000000
v 0.024506 -0.028412 -0.030070 0.749020 0.749020 0.749020
vn -1.000000 0.000000 0.000000
v 0.024506 -0.028687 -0.029070 0.749020 0.749020 0.749020
vn -1.000000 0.000000 0.000000
v 0.024506 -0.029404 -0.028338 0.749020 0.749020 0.749020
vn -1.000000 0.000000 0.000000
v 0.024506 -0.030411 -0.028070 0.749020 0.749020 0.749020
vn -1.000000 0.000000 0.000000
v 0.024506 -0.031418 -0.028338 0.749020 0.749020 0.749020
vn -1.000000 0.000000 0.000000
v 0.024506 -0.032150 -0.029070 0.749020 0.749020 0.749020
vn -1.000000 0.000000 0.000000
v 0.024506 0.032425 -0.030070 0.749020 0.749020 0.749020
vn -1.000000 0.000000 0.000000
v 0.024506 0.032150 -0.029070 0.749020 0.749020 0.749020
vn -1.000000 0.000000 0.000000
v 0.024506 0.031418 -0.028338 0.749020 0.749020 0.749020
vn -1.000000 0.000000 0.000000
v 0.024506 0.030426 -0.028070 0.749020 0.749020 0.749020
vn -1.000000 0.000000 0.000000
v 0.024506 0.029419 -0.028338 0.749020 0.749020 0.749020
vn -1.000000 0.000000 0.000000
v 0.024506 0.028687 -0.029070 0.749020 0.749020 0.749020
vn -1.000000 0.000000 0.000000
v 0.024506 0.028427 -0.030070 0.749020 0.749020 0.749020
vn -1.000000 0.000000 0.000000
v 0.024506 0.028687 -0.031070 0.749020 0.749020 0.749020
vn -1.000000 0.000000 0.000000
v 0.024506 0.029419 -0.031802 0.749020 0.749020 0.749020
vn -1.000000 0.000000 0.000000
v 0.024506 0.030426 -0.032070 0.749020 0.749020 0.749020
vn -1.000000 0.000000 0.000000
v 0.024506 0.031418 -0.031802 0.749020 0.749020 0.749020
vn -1.000000 0.000000 0.000000
v 0.024506 0.032150 -0.031070 0.749020 0.749020 0.749020
vn -1.000000 0.000000 0.000000
v 0.024506 0.042999 -0.043000 0.749020 0.749020 0.749020
vn -1.000000 0.000000 0.000000
v 0.024506 -0.042999 -0.043000 0.749020 0.749020 0.749020
vn -1.000000 0.000000 0.000000
v 0.024506 -0.042999 0.043000 0.749020 0.749020 0.749020
vn -1.000000 0.000000 0.000000
v 0.024506 0.042999 0.043000 0.749020 0.749020 0.749020
vn 0.000000 1.000000 0.000000
v -0.026489 -0.042999 0.043000 0.749020 0.749020 0.749020
vn 0.000000 1.000000 0.000000
v 0.024506 -0.042999 0.043000 0.749020 0.749020 0.749020
vn 0.000000 1.000000 0.000000
v 0.024506 -0.042999 -0.043000 0.749020 0.749020 0.749020
vn 0.000000 1.000000 0.000000
v -0.026489 -0.042999 -0.043000 0.749020 0.749020 0.749020
vn 0.000000 0.000000 -1.000000
v -0.026489 0.042999 0.043000 0.749020 0.749020 0.749020
vn 0.000000 0.000000 -1.000000
v 0.024506 0.042999 0.043000 0.749020 0.749020 0.749020
vn 0.000000 0.000000 -1.000000
v 0.024506 -0.042999 0.043000 0.749020 0.749020 0.749020
vn 0.000000 0.000000 -1.000000
v -0.026489 -0.042999 0.043000 0.749020 0.749020 0.749020
vn 0.000000 -1.000000 0.000000
v -0.026489 0.042999 -0.043000 0.749020 0.749020 0.749020
vn 0.000000 -1.000000 0.000000
v 0.024506 0.042999 -0.043000 0.749020 0.749020 0.749020
vn 0.000000 -1.000000 0.000000
v 0.024506 0.042999 0.043000 0.749020 0.749020 0.749020
vn 0.000000 -1.000000 0.000000
v -0.026489 0.042999 0.043000 0.749020 0.749020 0.749020
vn 0.000000 0.000000 1.000000
v -0.026489 -0.042999 -0.043000 0.749020 0.749020 0.749020
vn 0.000000 0.000000 1.000000
v 0.024506 -0.042999 -0.043000 0.749020 0.749020 0.749020
vn 0.000000 0.000000 1.000000
v 0.024506 0.042999 -0.043000 0.749020 0.749020 0.749020
vn 0.000000 0.000000 1.000000
v -0.026489 0.042999 -0.043000 0.749020 0.749020 0.749020
# 96 vertices, 0 vertices normals

f 1//1 2//2 5//5
f 5//5 2//2 3//3
f 5//5 3//3 8//8
f 8//8 3//3 4//4
f 8//8 4//4 7//7
f 7//7 4//4 1//1
f 7//7 1//1 6//6
f 6//6 1//1 5//5
f 10//10 11//11 9//9
f 9//9 11//11 12//12
f 14//14 15//15 13//13
f 13//13 15//15 16//16
f 38//38 39//39 42//42
f 41//41 19//19 20//20
f 25//25 44//44 24//24
f 24//24 44//44 41//41
f 24//24 41//41 23//23
f 35//35 36//36 42//42
f 42//42 36//36 37//37
f 42//42 37//37 38//38
f 35//35 42//42 34//34
f 34//34 42//42 43//43
f 34//34 43//43 33//33
f 20//20 21//21 41//41
f 41//41 21//21 22//22
f 41//41 22//22 23//23
f 44//44 31//31 43//43
f 43//43 31//31 32//32
f 43//43 32//32 33//33
f 25//25 26//26 44//44
f 44//44 26//26 27//27
f 44//44 27//27 31//31
f 31//31 27//27 28//28
f 31//31 28//28 30//30
f 30//30 28//28 17//17
f 30//30 17//17 29//29
f 29//29 17//17 18//18
f 29//29 18//18 40//40
f 40//40 18//18 19//19
f 40//40 19//19 39//39
f 39//39 19//19 41//41
f 39//39 41//41 42//42
f 46//46 47//47 45//45
f 45//45 47//47 48//48
f 50//50 51//51 49//49
f 49//49 51//51 52//52
f 54//54 55//55 78//78
f 78//78 55//55 56//56
f 78//78 56//56 57//57
f 73//73 74//74 77//77
f 77//77 74//74 75//75
f 77//77 75//75 76//76
f 77//77 78//78 73//73
f 73//73 78//78 57//57
f 73//73 57//57 72//72
f 72//72 57//57 58//58
f 72//72 58//58 71//71
f 71//71 58//58 59//59
f 71//71 59//59 70//70
f 70//70 59//59 60//60
f 70//70 60//60 69//69
f 69//69 60//60 61//61
f 67//67 80//80 66//66
f 66//66 80//80 77//77
f 66//66 77//77 65//65
f 65//65 77//77 76//76
f 67//67 68//68 80//80
f 80//80 68//68 69//69
f 80//80 69//69 79//79
f 79//79 69//69 61//61
f 79//79 61//61 62//62
f 62//62 63//63 79//79
f 79//79 63//63 64//64
f 79//79 64//64 78//78
f 78//78 64//64 53//53
f 78//78 53//53 54//54
f 81//81 82//82 84//84
f 84//84 82//82 83//83
f 85//85 86//86 88//88
f 88//88 86//86 87//87
f 89//89 90//90 92//92
f 92//92 90//90 91//91
f 93//93 94//94 96//96
f 96//96 94//94 95//95
# 84 faces, 0 coords texture

# End of File
