# Aspose.3D Wavefront OBJ Exporter
# Copyright 2004-2022 Aspose Pty Ltd.
# File created: 02/21/2022 09:31:25


#
# object obj_15760549
#

v 1166 -15 490.2056884765625
v 1168.5455322265625 -15 480.7056884765625
v 1175.5 -15 473.751220703125
v 1185 -15 471.2056884765625
v 1194.5 -15 473.751220703125
v 1201.4544677734375 -15 480.7056884765625
v 1204 -15 490.2056884765625
v 1201.4544677734375 -15 499.7056884765625
v 1194.5 -15 506.66018676757812496
v 1185 -15 509.2056884765625
v 1175.5 -15 506.66018676757812496
v 1168.5455322265625 -15 499.7056884765625
v 1185 -34 490.2056884765625
v 1185 -24.5 473.751220703125
v 1185 -31.45448303222656248 480.7056884765625
v 1170.75 -24.5 481.97845458984375008
v 1176.772705078125 -31.45448303222656248 485.4556884765625
v 1175.5 -31.45448303222656248 490.2056884765625
v 1168.5455322265625 -24.5 490.2056884765625
v 1176.772705078125 -24.5 475.9556884765625
v 1180.25 -31.45448303222656248 481.97845458984375008
v 1193.227294921875 -24.5 475.9556884765625
v 1189.75 -31.45448303222656248 481.97845458984375008
v 1199.25 -24.5 481.97845458984375008
v 1193.227294921875 -31.45448303222656248 485.4556884765625
v 1201.4544677734375 -24.5 490.2056884765625
v 1194.5 -31.45448303222656248 490.2056884765625
v 1199.25 -24.5 498.43295288085937504
v 1193.227294921875 -31.45448303222656248 494.9556884765625
v 1193.227294921875 -24.5 504.4556884765625
v 1189.75 -31.45448303222656248 498.43295288085937504
v 1185 -24.5 506.66018676757812496
v 1185 -31.45448303222656248 499.7056884765625
v 1176.772705078125 -24.5 504.4556884765625
v 1180.25 -31.45448303222656248 498.43295288085937504
v 1170.75 -24.5 498.43295288085937504
v 1176.772705078125 -31.45448303222656248 494.9556884765625
v 1166 -15 490.2056884765625
v 1168.5455322265625 -15 499.7056884765625
v 1175.5 -15 506.66018676757812496
v 1185 -15 509.2056884765625
v 1194.5 -15 506.66018676757812496
v 1201.4544677734375 -15 499.7056884765625
v 1204 -15 490.2056884765625
v 1201.4544677734375 -15 480.7056884765625
v 1194.5 -15 473.751220703125
v 1185 -15 471.2056884765625
v 1175.5 -15 473.751220703125
v 1168.5455322265625 -15 480.7056884765625
# 49 vertices

vn -1 0 -6.123234262925839E-17
vn -0.86602538824081424 0 -0.5
vn -0.5 0 -0.86602538824081424
vn 2.4492937051703357E-16 0 -1
vn 0.5 0 -0.86602538824081424
vn 0.86602538824081424 0 -0.5
vn 1 0 1.8369701465288538E-16
vn 0.86602538824081424 0 0.5
vn 0.5 0 0.86602538824081424
vn -6.123234262925839E-17 0 1
vn -0.5 0 0.86602538824081424
vn -0.86602538824081424 0 0.5
vn 0 -1 -6.123234262925839E-17
vn 1.232595164407831E-32 -0.5 -0.86602538824081424
vn 0 -0.86602538824081424 -0.5
vn -0.75 -0.5 -0.43301269412040712
vn -0.43301269412040712 -0.86602538824081424 -0.25
vn -0.5 -0.86602538824081424 -3.0616171314629196E-17
vn -0.86602538824081424 -0.5 -5.302876236065149E-17
vn -0.43301269412040712 -0.5 -0.75
vn -0.25 -0.86602538824081424 -0.43301269412040712
vn 0.43301269412040712 -0.5 -0.75
vn 0.25 -0.86602538824081424 -0.43301269412040712
vn 0.75 -0.5 -0.43301269412040712
vn 0.43301269412040712 -0.86602538824081424 -0.25
vn 0.86602538824081424 -0.5 1.5908628708195447E-16
vn 0.5 -0.86602538824081424 9.184850732644269E-17
vn 0.75 -0.5 0.43301269412040712
vn 0.43301269412040712 -0.86602538824081424 0.25
vn 0.43301269412040712 -0.5 0.75
vn 0.25 -0.86602538824081424 0.43301269412040712
vn -7.070501648086865E-17 -0.5 0.86602538824081424
vn -5.102694888232621E-17 -0.86602538824081424 0.5
vn -0.43301269412040712 -0.5 0.75
vn -0.25 -0.86602538824081424 0.43301269412040712
vn -0.75 -0.5 0.43301269412040712
vn -0.43301269412040712 -0.86602538824081424 0.25
vn 0 1 0
vn 0 1 0
vn 0 1 0
vn 0 1 0
vn 0 1 0
vn 0 1 0
vn 0 1 0
vn 0 1 0
vn 0 1 0
vn 0 1 0
vn 0 1 0
vn 0 1 0
# 49 vertex normals

g obj_15760549
s 1
f 27//27 13//13 25//25
f 25//25 13//13 23//23
f 31//31 13//13 29//29
f 29//29 13//13 27//27
f 35//35 13//13 33//33
f 33//33 13//13 31//31
f 19//19 18//18 36//36
f 36//36 18//18 37//37
f 36//36 37//37 34//34
f 17//17 21//21 13//13
f 13//13 21//21 15//15
f 13//13 15//15 23//23
f 17//17 16//16 21//21
f 21//21 16//16 20//20
f 21//21 20//20 15//15
f 15//15 20//20 14//14
f 15//15 14//14 23//23
f 23//23 14//14 22//22
f 23//23 22//22 25//25
f 25//25 22//22 24//24
f 25//25 24//24 27//27
f 27//27 24//24 26//26
f 27//27 26//26 29//29
f 29//29 26//26 28//28
f 29//29 28//28 31//31
f 31//31 28//28 30//30
f 31//31 30//30 33//33
f 33//33 30//30 32//32
f 33//33 32//32 35//35
f 32//32 34//34 35//35
f 35//35 34//34 37//37
f 35//35 37//37 13//13
f 13//13 37//37 18//18
f 13//13 18//18 17//17
f 17//17 18//18 19//19
f 17//17 19//19 16//16
f 12//12 36//36 11//11
f 11//11 36//36 34//34
f 11//11 34//34 10//10
f 10//10 34//34 32//32
f 10//10 32//32 9//9
f 9//9 32//32 30//30
f 9//9 30//30 8//8
f 8//8 30//30 28//28
f 8//8 28//28 7//7
f 7//7 28//28 26//26
f 7//7 26//26 6//6
f 6//6 26//26 24//24
f 6//6 24//24 5//5
f 5//5 24//24 22//22
f 5//5 22//22 4//4
f 4//4 22//22 14//14
f 4//4 14//14 3//3
f 3//3 14//14 20//20
f 3//3 20//20 2//2
f 2//2 20//20 16//16
f 2//2 16//16 1//1
f 1//1 16//16 19//19
f 1//1 19//19 12//12
f 12//12 19//19 36//36
f 46//46 47//47 48//48
f 46//46 48//48 45//45
f 45//45 48//48 49//49
f 45//45 49//49 44//44
f 44//44 49//49 38//38
f 44//44 38//38 43//43
f 43//43 38//38 39//39
f 43//43 39//39 42//42
f 42//42 39//39 40//40
f 42//42 40//40 41//41
#70 polygons

