####
#
# OBJ File Generated by Meshlab
#
####
# Object 22.02.16 1D_LEFT PANEL_LEVER_mod.obj
#
# Vertices: 136
# Faces: 116
#
####
vn 0.066519 0.000000 -0.997785
v 5.634872 5.000000 -4.672852
vn 0.066519 0.000000 -0.997785
v 73.151489 5.000000 -0.171753
vn 0.066519 0.000000 -0.997785
v 73.151489 3.000000 -0.171753
vn 0.066519 0.000000 -0.997785
v -61.881729 3.000000 -9.173950
vn 0.066519 0.000000 -0.997785
v -61.881729 5.000000 -9.173950
vn 0.000000 -1.000000 0.000000
v 73.151489 3.000000 -0.171753
vn 0.000000 -1.000000 0.000000
v -61.881729 3.000000 8.821655
vn 0.000000 -1.000000 0.000000
v -61.881729 3.000000 -9.173950
vn -1.000000 0.000000 0.000000
v -61.881729 3.000000 8.821655
vn -1.000000 0.000000 0.000000
v -61.881729 -15.000000 8.821655
vn -1.000000 0.000000 0.000000
v -61.881729 -15.000000 10.826050
vn -1.000000 0.000000 0.000000
v -61.881729 5.000000 10.826050
vn -1.000000 0.000000 0.000000
v -61.881729 5.000000 -9.173950
vn -1.000000 0.000000 0.000000
v -61.881729 3.000000 -9.173950
vn -0.066454 0.000000 -0.997790
v -61.881729 3.000000 8.821655
vn -0.066454 0.000000 -0.997790
v 73.151489 3.000000 -0.171753
vn -0.066454 0.000000 -0.997790
v 73.151489 -15.000000 -0.171753
vn -0.066454 0.000000 -0.997790
v -61.881729 -15.000000 8.821655
vn 0.066519 0.000000 0.997785
v -61.881729 5.000000 10.826050
vn 0.066519 0.000000 0.997785
v -61.881729 -15.000000 10.826050
vn 0.066519 0.000000 0.997785
v 73.151489 -15.000000 1.823853
vn 0.066519 0.000000 0.997785
v 73.151489 5.000000 1.823853
vn 0.066519 0.000000 0.997785
v 5.462204 5.000000 6.336426
vn 0.066519 0.000000 0.997785
v 73.151489 5.000000 1.823853
vn 0.066519 0.000000 0.997785
v 73.151489 -15.000000 1.823853
vn 0.537928 0.000000 0.842991
v 73.622894 -15.000000 1.669067
vn 0.876906 -0.000000 0.480662
v 73.961884 -15.000000 1.306763
vn 1.000000 -0.000000 0.000000
v 74.084976 -15.000000 0.826050
vn 0.876906 -0.000000 -0.480662
v 73.961884 -15.000000 0.345337
vn 0.537928 0.000000 -0.842991
v 73.622894 -15.000000 -0.016968
vn 0.066519 -0.000000 -0.997785
v 73.151489 -15.000000 -0.171753
vn 0.066519 0.000000 -0.997785
v 73.151489 3.000000 -0.171753
vn 0.066519 0.000000 -0.997785
v 73.151489 5.000000 -0.171753
vn 0.537928 0.000000 -0.842991
v 73.622894 5.000000 -0.016968
vn 0.876906 -0.000000 -0.480662
v 73.961884 5.000000 0.345337
vn 1.000000 -0.000000 0.000000
v 74.084976 5.000000 0.826050
vn 0.876906 0.000000 0.480662
v 73.961884 5.000000 1.306763
vn 0.537928 -0.000000 0.842991
v 73.622894 5.000000 1.669067
vn 0.000000 1.000000 0.000000
v 5.634872 5.000000 -4.672852
vn 0.000000 1.000000 0.000000
v 5.915680 5.000000 -1.002930
vn 0.000000 1.000000 0.000000
v 5.857956 5.000000 2.677246
vn 0.000000 1.000000 0.000000
v 5.462204 5.000000 6.336426
vn 0.000000 1.000000 0.000000
v 73.151489 5.000000 1.823853
vn 0.000000 1.000000 0.000000
v 73.622894 5.000000 1.669067
vn 0.000000 1.000000 0.000000
v 73.961884 5.000000 1.306763
vn 0.000000 1.000000 0.000000
v 74.084976 5.000000 0.826050
vn 0.000000 1.000000 0.000000
v 73.961884 5.000000 0.345337
vn 0.000000 1.000000 0.000000
v 73.622894 5.000000 -0.016968
vn 0.000000 1.000000 0.000000
v 73.151489 5.000000 -0.171753
vn 0.000000 -1.000000 0.000000
v 73.151489 -15.000000 -0.171753
vn 0.000000 -1.000000 0.000000
v 73.622894 -15.000000 -0.016968
vn 0.000000 -1.000000 0.000000
v 73.961884 -15.000000 0.345337
vn 0.000000 -1.000000 0.000000
v 74.084976 -15.000000 0.826050
vn 0.000000 -1.000000 0.000000
v 73.961884 -15.000000 1.306763
vn 0.000000 -1.000000 0.000000
v 73.622894 -15.000000 1.669067
vn 0.000000 -1.000000 0.000000
v 73.151489 -15.000000 1.823853
vn 0.000000 -1.000000 0.000000
v -61.881729 -15.000000 10.826050
vn 0.000000 -1.000000 0.000000
v -61.881729 -15.000000 8.821655
vn 0.951920 -0.000000 -0.306345
v 4.010895 15.000000 -12.043335
vn 0.999289 -0.000000 0.037705
v 5.905640 15.000000 1.718750
vn 0.926128 -0.000000 0.377208
v 2.979218 15.000000 15.298828
vn 0.741263 -0.000000 0.671214
v -4.415390 15.000000 27.059082
vn 0.466991 -0.000000 0.884262
v -15.386292 15.000000 35.580933
vn 0.136392 0.000000 0.990655
v -28.610229 15.000000 39.836670
vn -0.210657 0.000000 0.977560
v -42.492203 15.000000 39.312866
vn -0.532298 0.000000 0.846557
v -55.357849 15.000000 34.072754
vn -0.789736 0.000000 0.613447
v -65.655365 15.000000 24.748291
vn -0.951920 0.000000 0.306345
v -72.142731 15.000000 12.464355
vn -0.999289 0.000000 -0.037705
v -74.037476 15.000000 -1.297729
vn -0.926128 0.000000 -0.377208
v -71.111053 15.000000 -14.877808
vn -0.741263 0.000000 -0.671214
v -63.716446 15.000000 -26.638062
vn -0.466991 0.000000 -0.884262
v -52.745544 15.000000 -35.160034
vn -0.136392 -0.000000 -0.990655
v -39.521606 15.000000 -39.415771
vn 0.210657 -0.000000 -0.977560
v -25.639626 15.000000 -38.891968
vn 0.532298 -0.000000 -0.846557
v -12.773987 15.000000 -33.651733
vn 0.789736 -0.000000 -0.613447
v -2.476471 15.000000 -24.327393
vn 0.992520 -0.000000 -0.122083
v 5.634872 5.000000 -4.672852
vn 0.897771 -0.000000 -0.440462
v 1.844940 5.000000 -17.407959
vn 0.703961 -0.000000 -0.710239
v -5.907486 5.000000 -28.199097
vn 0.432473 -0.000000 -0.901647
v -16.766975 5.000000 -35.855347
vn 0.113266 -0.000000 -0.993565
v -29.535278 5.000000 -39.532104
vn -0.218439 -0.000000 -0.975851
v -42.803490 5.000000 -38.823486
vn -0.526042 0.000000 -0.850459
v -55.107582 5.000000 -33.807861
vn -0.775599 0.000000 -0.631225
v -65.089890 5.000000 -25.038574
vn -0.939576 0.000000 -0.342341
v -71.648941 5.000000 -13.483154
vn -0.999877 0.000000 -0.015682
v -74.060997 5.000000 -0.416870
vn -0.949850 0.000000 0.312707
v -72.059906 5.000000 12.718750
vn -0.795014 0.000000 0.606591
v -65.866470 5.000000 24.474121
vn -0.552454 0.000000 0.833543
v -56.164085 5.000000 33.552246
vn -0.248936 0.000000 0.968520
v -44.023338 5.000000 38.951294
vn 0.082051 0.000000 0.996628
v -30.783867 5.000000 40.075562
vn 0.403984 -0.000000 0.914766
v -17.906548 5.000000 36.801147
vn 0.681341 -0.000000 0.731966
v -6.812286 5.000000 29.489136
vn 0.883516 -0.000000 0.468400
v 1.274734 5.000000 18.946533
vn 0.988203 -0.000000 0.153149
v 5.462204 5.000000 6.336426
vn 0.998097 -0.000000 0.061668
v 5.857956 5.000000 2.677246
vn 0.999540 -0.000000 -0.030336
v 5.915680 5.000000 -1.002930
vn 0.000000 1.000000 -0.000000
v 4.010895 15.000000 -12.043335
vn 0.000000 1.000000 -0.000000
v -2.476471 15.000000 -24.327393
vn 0.000000 1.000000 -0.000000
v -12.773987 15.000000 -33.651733
vn 0.000000 1.000000 -0.000000
v -25.639626 15.000000 -38.891968
vn 0.000000 1.000000 -0.000000
v -39.521606 15.000000 -39.415771
vn 0.000000 1.000000 -0.000000
v -52.745544 15.000000 -35.160034
vn 0.000000 1.000000 -0.000000
v -63.716446 15.000000 -26.638062
vn 0.000000 1.000000 -0.000000
v -71.111053 15.000000 -14.877808
vn 0.000000 1.000000 -0.000000
v -74.037476 15.000000 -1.297729
vn 0.000000 1.000000 -0.000000
v -72.142731 15.000000 12.464355
vn 0.000000 1.000000 -0.000000
v -65.655365 15.000000 24.748291
vn 0.000000 1.000000 -0.000000
v -55.357849 15.000000 34.072754
vn 0.000000 1.000000 -0.000000
v -42.492203 15.000000 39.312866
vn 0.000000 1.000000 -0.000000
v -28.610229 15.000000 39.836670
vn 0.000000 1.000000 -0.000000
v -15.386292 15.000000 35.580933
vn 0.000000 1.000000 -0.000000
v -4.415390 15.000000 27.059082
vn 0.000000 1.000000 -0.000000
v 2.979218 15.000000 15.298828
vn 0.000000 1.000000 -0.000000
v 5.905640 15.000000 1.718750
vn -0.000000 -1.000000 0.000000
v -61.881729 5.000000 10.826050
vn -0.000000 -1.000000 0.000000
v 5.462204 5.000000 6.336426
vn -0.000000 -1.000000 0.000000
v 1.274734 5.000000 18.946533
vn -0.000000 -1.000000 0.000000
v -6.812286 5.000000 29.489136
vn -0.000000 -1.000000 0.000000
v -17.906548 5.000000 36.801147
vn -0.000000 -1.000000 0.000000
v -30.783867 5.000000 40.075562
vn -0.000000 -1.000000 0.000000
v -44.023338 5.000000 38.951294
vn -0.000000 -1.000000 0.000000
v -56.164085 5.000000 33.552246
vn -0.000000 -1.000000 0.000000
v -65.866470 5.000000 24.474121
vn -0.000000 -1.000000 0.000000
v -72.059906 5.000000 12.718750
vn -0.000000 -1.000000 0.000000
v -74.060997 5.000000 -0.416870
vn -0.000000 -1.000000 0.000000
v -71.648941 5.000000 -13.483154
vn -0.000000 -1.000000 0.000000
v -65.089890 5.000000 -25.038574
vn -0.000000 -1.000000 0.000000
v -55.107582 5.000000 -33.807861
vn -0.000000 -1.000000 0.000000
v -42.803490 5.000000 -38.823486
vn -0.000000 -1.000000 0.000000
v -29.535278 5.000000 -39.532104
vn -0.000000 -1.000000 0.000000
v -16.766975 5.000000 -35.855347
vn -0.000000 -1.000000 0.000000
v -5.907486 5.000000 -28.199097
vn -0.000000 -1.000000 0.000000
v 1.844940 5.000000 -17.407959
vn -0.000000 -1.000000 0.000000
v 5.634872 5.000000 -4.672852
vn -0.000000 -1.000000 0.000000
v -61.881729 5.000000 -9.173950
# 136 vertices, 0 vertices normals

f 2//2 3//3 1//1
f 1//1 3//3 4//4
f 1//1 4//4 5//5
f 7//7 8//8 6//6
f 11//11 9//9 10//10
f 11//11 12//12 9//9
f 9//9 12//12 13//13
f 9//9 13//13 14//14
f 15//15 16//16 18//18
f 18//18 16//16 17//17
f 19//19 20//20 23//23
f 23//23 20//20 21//21
f 23//23 21//21 22//22
f 25//25 38//38 24//24
f 25//25 26//26 38//38
f 38//38 26//26 27//27
f 38//38 27//27 37//37
f 37//37 27//27 28//28
f 37//37 28//28 36//36
f 36//36 28//28 29//29
f 36//36 29//29 35//35
f 35//35 29//29 30//30
f 35//35 30//30 34//34
f 33//33 34//34 32//32
f 32//32 34//34 30//30
f 32//32 30//30 31//31
f 43//43 44//44 45//45
f 46//46 47//47 49//49
f 49//49 47//47 48//48
f 40//40 41//41 43//43
f 43//43 41//41 42//42
f 45//45 46//46 43//43
f 43//43 46//46 49//49
f 43//43 49//49 40//40
f 40//40 49//49 39//39
f 53//53 54//54 56//56
f 56//56 54//54 55//55
f 51//51 52//52 50//50
f 50//50 52//52 53//53
f 50//50 53//53 58//58
f 58//58 53//53 56//56
f 58//58 56//56 57//57
f 68//68 88//88 67//67
f 67//67 88//88 89//89
f 67//67 89//89 66//66
f 66//66 89//89 90//90
f 66//66 90//90 65//65
f 65//65 90//90 91//91
f 65//65 91//91 64//64
f 64//64 91//91 92//92
f 64//64 92//92 63//63
f 63//63 92//92 93//93
f 63//63 93//93 62//62
f 62//62 93//93 94//94
f 62//62 94//94 61//61
f 61//61 94//94 95//95
f 61//61 95//95 60//60
f 60//60 95//95 96//96
f 96//96 97//97 60//60
f 60//60 97//97 77//77
f 60//60 77//77 59//59
f 59//59 77//77 78//78
f 59//59 78//78 76//76
f 76//76 78//78 79//79
f 76//76 79//79 75//75
f 75//75 79//79 80//80
f 75//75 80//80 74//74
f 74//74 80//80 81//81
f 74//74 81//81 73//73
f 73//73 81//81 82//82
f 73//73 82//82 72//72
f 72//72 82//82 83//83
f 72//72 83//83 71//71
f 71//71 83//83 84//84
f 71//71 84//84 70//70
f 70//70 84//84 85//85
f 70//70 85//85 69//69
f 69//69 85//85 86//86
f 69//69 86//86 68//68
f 68//68 86//86 87//87
f 68//68 87//87 88//88
f 111//111 112//112 110//110
f 110//110 112//112 113//113
f 110//110 113//113 109//109
f 109//109 113//113 114//114
f 109//109 114//114 108//108
f 108//108 114//114 115//115
f 108//108 115//115 107//107
f 107//107 115//115 98//98
f 107//107 98//98 106//106
f 106//106 98//98 99//99
f 106//106 99//99 105//105
f 105//105 99//99 100//100
f 105//105 100//100 104//104
f 104//104 100//100 101//101
f 104//104 101//101 103//103
f 103//103 101//101 102//102
f 118//118 116//116 117//117
f 129//129 136//136 128//128
f 118//118 119//119 116//116
f 116//116 119//119 120//120
f 116//116 120//120 121//121
f 121//121 122//122 116//116
f 116//116 122//122 123//123
f 116//116 123//123 124//124
f 124//124 125//125 116//116
f 116//116 125//125 126//126
f 116//116 126//126 136//136
f 136//136 126//126 127//127
f 136//136 127//127 128//128
f 129//129 130//130 136//136
f 136//136 130//130 131//131
f 136//136 131//131 132//132
f 132//132 133//133 136//136
f 136//136 133//133 134//134
f 136//136 134//134 135//135
# 116 faces, 0 coords texture

# End of File
